<svg width="46" height="16" viewBox="0 0 46 16" fill="none" xmlns="http://www.w3.org/2000/svg">
<path d="M17.4709 1.16764L11.7423 15.2706H7.95976L5.05169 4.01598C4.87509 3.32277 4.72324 3.06881 4.19502 2.77676C3.33286 2.30082 1.91037 1.85474 0.65939 1.57774L0.742264 1.16788L6.83103 1.16788C7.60714 1.16788 8.30742 1.69461 8.48808 2.6058L10.0348 10.7664L13.7118 1.16764L17.4709 1.16764ZM32.3382 10.6659C32.3352 6.9438 27.2707 6.73875 27.2974 5.07602C27.3058 4.56999 27.7757 4.03197 28.8095 3.89465C29.3219 3.82622 30.7343 3.77401 32.3403 4.52578L32.9541 1.53518C32.0916 1.21679 30.9823 0.910156 29.604 0.910156C26.0671 0.910156 23.5873 2.82708 23.5798 5.57195C23.5668 7.60221 25.3719 8.73515 26.7309 9.40979C28.129 10.1007 28.5991 10.5446 28.5968 11.1626C28.5915 12.1086 27.4911 12.5262 26.4609 12.5427C24.6625 12.5709 23.6162 12.0465 22.7824 11.6522L22.1489 14.7418C22.9869 15.1328 24.5318 15.474 26.1319 15.4912C29.8911 15.4909 32.341 13.598 32.3382 10.6659ZM41.7004 15.2706H45.0099L42.0522 1.16764L38.9975 1.16764C38.3107 1.16764 37.7333 1.57539 37.4799 2.20229L32.1739 15.2706H35.9313L36.6671 13.1639L41.2581 13.1639L41.7004 15.2706ZM37.6833 10.2735L39.5409 4.97844L40.6508 10.2735H37.6833ZM22.5838 1.16764L19.6938 15.2706H16.1155L19.0067 1.16764L22.5838 1.16764Z" fill="white"/>
</svg>
