<svg width="48" height="49" viewBox="0 0 48 49" fill="none" xmlns="http://www.w3.org/2000/svg">
<circle cx="24" cy="24.4883" r="24" fill="#FF5555"/>
<path d="M26 33.4883H22M30 20.4883C30 18.897 29.3679 17.3709 28.2427 16.2456C27.1174 15.1204 25.5913 14.4883 24 14.4883C22.4087 14.4883 20.8826 15.1204 19.7574 16.2456C18.6322 17.3709 18 18.897 18 20.4883C18 23.5785 17.2205 25.6942 16.3497 27.0937C15.6151 28.2742 15.2479 28.8644 15.2613 29.029C15.2763 29.2114 15.3149 29.2809 15.4618 29.3899C15.5945 29.4883 16.1926 29.4883 17.3889 29.4883H30.6112C31.8074 29.4883 32.4056 29.4883 32.5382 29.3899C32.6852 29.2809 32.7238 29.2114 32.7387 29.029C32.7522 28.8644 32.3849 28.2742 31.6504 27.0937C30.7795 25.6942 30 23.5785 30 20.4883Z" stroke="white" stroke-width="2" stroke-linecap="round" stroke-linejoin="round"/>
</svg>
