<svg width="67" height="30" viewBox="0 0 67 30" fill="none" xmlns="http://www.w3.org/2000/svg">
<path d="M6.58636 23.1302C7.62229 23.1302 8.53869 22.9409 9.33556 22.5624C10.1324 22.164 10.7401 21.5663 11.1584 20.7695V22.7716H15.342V6.45564H10.8596V15.9882C10.8596 16.9245 10.5807 17.6816 10.0229 18.2593C9.46506 18.8171 8.74787 19.096 7.87131 19.096C6.99475 19.096 6.27757 18.8171 5.71976 18.2593C5.16195 17.6816 4.88304 16.9245 4.88304 15.9882V6.45564H0.400635V16.3468C0.400635 18.3788 0.928563 20.0224 1.98442 21.2775C3.0602 22.5126 4.59417 23.1302 6.58636 23.1302Z" fill="black"/>
<path d="M18.6181 4.99139H23.1005V0.508982H18.6181V4.99139ZM18.6181 22.7716H23.1005V6.45564H18.6181V22.7716Z" fill="black"/>
<path d="M28.3529 22.7716H32.8353V10.3404H36.3316V6.45564H32.8353V6.21658C32.8353 4.76229 33.682 4.03514 35.3753 4.03514C35.6542 4.03514 35.9829 4.06503 36.3614 4.12479V0.299804C35.9032 0.200195 35.3753 0.150391 34.7777 0.150391C32.7456 0.150391 31.1618 0.678318 30.0263 1.73417C28.9107 2.79003 28.3529 4.28417 28.3529 6.21658V6.45564H25.6037V10.3404H28.3529V22.7716Z" fill="black"/>
<path d="M38.6372 22.7716H43.1196V13.9861C43.1196 12.7709 43.4583 11.8345 44.1356 11.1771C44.8129 10.4998 45.6995 10.1611 46.7952 10.1611H48.1997V6.27634H47.2434C46.2473 6.27634 45.3608 6.4656 44.5838 6.84412C43.8268 7.20271 43.2391 7.89001 42.8208 8.90602V6.45564H38.6372V22.7716Z" fill="black"/>
<path d="M52.7042 29.4056C55.6925 29.4056 57.854 27.7022 59.1888 24.2956L66.1813 6.45564H61.3702L57.5154 16.9445L53.6605 6.45564H48.8494L55.2742 22.7716L54.9753 23.4589C54.7363 23.9968 54.4275 24.4749 54.049 24.8933C53.6704 25.3116 53.0429 25.5208 52.1663 25.5208C51.4492 25.5208 50.7718 25.4212 50.1343 25.222V28.8976C50.473 29.0769 50.8615 29.2063 51.2998 29.286C51.758 29.3657 52.2261 29.4056 52.7042 29.4056Z" fill="black"/>
</svg>
